<svg width="166" height="35" xmlns="http://www.w3.org/2000/svg"><defs><linearGradient x1="63.9%" y1="30.2%" x2="34.7%" y2="69.8%" id="a"><stop stop-color="#47B0FF" offset="0%"/><stop stop-color="#009DFF" offset="100%"/></linearGradient><linearGradient x1="30.5%" y1="69.6%" x2="57.5%" y2="30.4%" id="b"><stop stop-color="#32BEFF" offset="0%"/><stop stop-color="#5ECCFF" offset="100%"/></linearGradient><linearGradient x1="25.1%" y1="83.3%" x2="63.6%" y2="16.7%" id="c"><stop stop-color="#1970E3" offset="0%"/><stop stop-color="#115FC6" offset="100%"/></linearGradient><linearGradient x1="28.5%" y1="0%" x2="80%" y2="100%" id="d"><stop stop-color="#62BBFF" offset="0%"/><stop stop-color="#009DFF" offset="100%"/></linearGradient></defs><g fill-rule="nonzero" fill="none"><path d="M18.5 0h-1.2 16.3-1.3c.8 0 1.6.6 2 1.3L51 33.2v.2c0 .3-.2.6-.5.6H39c-.8 0-1.6-.5-2-1.2L25.4 10.4l-6 11.5h4.7c.8 0 1.6.4 2 1.2l4.8 9.3v.5c0 .6-.4 1-1 1H.9a.8.8 0 0 1-.8-1.1L16.5 1.3c.4-.7 1.1-1.2 2-1.3Z" fill="#009DFF"/><path d="M19.4 21.9h4.7c.8 0 1.6.4 2 1.2l4.8 9.3v.5c0 .6-.4 1-1 1H11.8c.8 0 1.6-.4 2-1.1l5.6-11Z" fill="url(#a)"/><path d="m19.4 21.9-5.7 10.9c-.3.7-1.1 1.2-2 1.2H1l-.3-.1a.8.8 0 0 1-.4-1.1l5-9.6c.4-.8 1.2-1.3 2.2-1.3h12Z" fill="url(#b)"/><path d="M19.4 21.9h-12c-1 0-1.8.5-2.3 1.3L16.5 1.3C16.9.5 17.7 0 18.7 0h14.9-1.1c-1 0-2 .6-2.5 1.5L19.4 21.9Z" fill="url(#c)"/><path d="M20.8 1.5C20.3.5 19.4 0 18.3 0h-1H32c1 0 1.8.5 2.2 1.3L51 33.2v.2c0 .3-.2.6-.5.6H39c-.8 0-1.6-.5-2-1.2L20.8 1.5Z" fill="url(#d)"/><path d="M59.6 34.3a.9.9 0 0 1-.9-.9l.1-.4L69.2 5c.3-.6.8-1 1.6-1h4.8c.7 0 1.2.4 1.5 1l10.4 28 .1.4c0 .3 0 .5-.3.7a1 1 0 0 1-.6.2h-3.9c-.6 0-1-.2-1.2-.8l-2-5.2H66.7l-2 5.2c-.2.6-.6.8-1.2.8h-3.9Zm8.7-11H78L73 9.8l-4.8 13.3Zm24.4 11a1 1 0 0 1-.7-.3 1 1 0 0 1-.3-.7V4.6c0-.3 0-.6.3-.8l.7-.2h3.7c.3 0 .6 0 .7.2.2.2.3.5.3.8v28.7c0 .3 0 .5-.3.7a1 1 0 0 1-.7.3h-3.7Zm17.6.5c-1.5 0-2.8-.3-4-1a7.4 7.4 0 0 1-3-2.3c-.7-1-1-2.2-1-3.4 0-2 .8-3.5 2.4-4.7 1.6-1.2 3.7-2 6.5-2.5l6-.9v-.9c0-1.2-.4-2.2-1-2.8-.6-.6-1.6-1-3-1-1 0-1.7.2-2.3.6-.6.3-1 .7-1.4 1l-.8.7c0 .4-.3.6-.6.6h-3.4a1 1 0 0 1-.7-.3.9.9 0 0 1-.2-.7c0-.7.3-1.5 1-2.4.7-1 1.7-1.7 3.2-2.4 1.4-.7 3.1-1 5.2-1 3.4 0 6 .7 7.5 2.3a8 8 0 0 1 2.3 6v13.6c0 .3 0 .5-.3.7a1 1 0 0 1-.7.3h-3.6a1 1 0 0 1-.8-.3 1 1 0 0 1-.3-.7v-1.7c-.6 1-1.5 1.7-2.7 2.3-1.1.6-2.6.9-4.3.9Zm1.5-4.2c1.6 0 2.9-.5 3.9-1.6 1-1 1.5-2.5 1.5-4.5v-.8l-4.3.7c-3.4.5-5 1.6-5 3.3 0 1 .4 1.6 1.1 2.1.8.5 1.7.8 2.8.8Zm18.4 3.7a1 1 0 0 1-.8-.3 1 1 0 0 1-.3-.7V12.8c0-.3.1-.5.3-.7.2-.2.5-.3.8-.3h3.6c.3 0 .6 0 .7.3.2.2.3.4.3.7v1.8a8.8 8.8 0 0 1 7.3-3.2c2.6 0 4.7.8 6.3 2.6 1.6 1.7 2.4 4 2.4 7.1v12.2c0 .3-.1.5-.3.7a1 1 0 0 1-.8.3h-3.9a1 1 0 0 1-.7-.3 1 1 0 0 1-.3-.7v-12c0-1.6-.4-3-1.3-3.8-.8-1-2-1.5-3.5-1.5s-2.7.5-3.6 1.5c-.9 1-1.3 2.2-1.3 3.9v11.9c0 .3-.1.5-.3.7a1 1 0 0 1-.8.3h-3.8ZM159.8 11.5c1 0 2-.2 2.8-.8a5.8 5.8 0 0 0 3-5c0-1-.3-2-.9-2.8a5.8 5.8 0 0 0-5-2.9 5.8 5.8 0 0 0-5.8 5.8c.1 1 .4 2 .9 2.8a5.8 5.8 0 0 0 5 3Zm0-1.3a4.4 4.4 0 0 1-4.4-4.4 4.4 4.4 0 0 1 4.4-4.5 4.4 4.4 0 0 1 4.4 4.4 4.4 4.4 0 0 1-4.4 4.5Zm-1-1.5.2-.1.1-.3V6.7h.7l.8 1.7c0 .2.2.3.4.3h1l.3-.1V8l-.8-1.7a1.7 1.7 0 0 0 1-1.6c0-.7-.3-1.2-.8-1.5a3 3 0 0 0-1.7-.5h-2.2l-.3.1V8.6h1.3Zm1.2-3.3h-.9V4.2h.9l.5.1.2.5c0 .1 0 .3-.2.4l-.5.2Z" fill="#081746"/></g></svg>