<svg xmlns="http://www.w3.org/2000/svg" viewBox="0 0 790 180"><path d="M89.1 1.8a89.1 89.1 0 1 0 0 178.2 89.1 89.1 0 0 0 0-178.2zm457.8 19.7c-1.2 0-2.2 1-2.2 2.2v103.2c0 1.2 1 2.2 2.2 2.2h13.4c1.2 0 2.2-1 2.2-2.2v-7.1a36.5 36.5 0 0 0 26.3 11.3c20.9 0 37.9-18 37.9-40.3a39 39 0 0 0-37.9-40.2c-10 0-19.5 4.1-26.3 11.3V23.7c0-1.2-1-2.2-2.2-2.2h-13.4zM98.3 36.4c11.4.3 22.9 4.8 31.7 13.7a44.4 44.4 0 0 1 1.4 62.7c-30.5 30.5-84.8 20.7-84.8 20.7s-9.8-54.3 20.7-84.8a42.8 42.8 0 0 1 31-12.3zm160.3 14.2a26 26 0 0 0-20.8 10.6v-6.4c0-1.2-1-2.2-2.2-2.2h-13.4c-1.2 0-2.2 1-2.2 2.2V127c0 1.2 1 2.2 2.2 2.2h13.4c1.2 0 2.2-1 2.2-2.2V83.8c.5-9.7 7.2-17.3 15.4-17.3A16 16 0 0 1 268.8 83v44c0 1.2 1 2.2 2.2 2.2h13.5c1.2 0 2.2-1 2.2-2.2l-.1-44.9c1.2-8.8 7.6-15.6 15.3-15.6A16 16 0 0 1 317.5 83v44c0 1.2 1 2.2 2.2 2.2h13.5c1.2 0 2.2-1 2.2-2.2l-.1-49.6c.3-14.8-12.3-26.8-27.9-26.8-10 .1-19.2 5.9-23.5 15a28.4 28.4 0 0 0-25.3-15zm127.9 0c-20.9 0-37.9 18-37.9 40.3 0 22.3 17 40.3 37.9 40.3 10 0 19.5-4.1 26.3-11.3v7.1c0 1.2 1 2.2 2.2 2.2h13.4c1.2 0 2.2-1 2.2-2.2V54.8c.1-1.2-.9-2.2-2.2-2.2H415c-1.2 0-2.2 1-2.2 2.2v7.1a36.5 36.5 0 0 0-26.3-11.3zm106.1 0c-10 0-19.5 4.1-26.3 11.3v-7.1c0-1.2-1-2.2-2.2-2.2h-13.4c-1.2 0-2.2 1-2.2 2.2V158c0 1.2 1 2.2 2.2 2.2h13.4c1.2 0 2.2-1 2.2-2.2v-38.2a36.5 36.5 0 0 0 26.3 11.3c20.9 0 37.9-18 37.9-40.3a39 39 0 0 0-37.9-40.2zm185.5 0c-22.7 0-41 18-41 40.3 0 22.3 18.4 40.3 41 40.3s41-18 41-40.3a40.6 40.6 0 0 0-41-40.3zm45.4 2a2 2 0 0 0-2 2c0 .4.1.8.3 1.1l23 35-23.3 35.4a2 2 0 0 0 1.7 3.1h15.5c1.2 0 2.3-.6 2.9-1.6l13.8-23.1 13.8 23.1c.6 1 1.7 1.6 2.9 1.6h15.5a2 2 0 0 0 2-2c0-.4-.1-.7-.3-1.1L766 90.7l23-35a2 2 0 0 0-1.7-3.1h-15.5c-1.2 0-2.3.6-2.9 1.6l-13.5 22.7-13.5-22.7c-.6-1-1.7-1.6-2.9-1.6h-15.5zM99.3 54l-8.7 18-17.9 8.7 17.9 8.7 8.7 18 8.8-18 17.9-8.7-17.9-8.7-8.8-18zm290.3 12.7c12.7 0 23 10.7 23.2 23.9v.6a23.7 23.7 0 0 1-23.2 23.9 23.7 23.7 0 0 1-23.2-24.2 23.7 23.7 0 0 1 23.2-24.2zm99.8 0a23.7 23.7 0 0 1 23.2 24.2 23.7 23.7 0 0 1-23.2 24.2c-12.7 0-23-10.7-23.2-23.9v-.6a23.8 23.8 0 0 1 23.2-23.9zm96.3 0a23.7 23.7 0 0 1 23.2 24.2 23.7 23.7 0 0 1-23.2 24.2c-12.7 0-23-10.7-23.2-23.9v-.6a23.8 23.8 0 0 1 23.2-23.9zm92.2 0a23.7 23.7 0 0 1 23.2 24.2 23.7 23.7 0 0 1-23.2 24.2 23.7 23.7 0 0 1-23.2-24.2 23.7 23.7 0 0 1 23.2-24.2z" fill="#4264fb"/></svg>