<svg xmlns="http://www.w3.org/2000/svg" width="668" height="582" fill="none"><g filter="url(#a)"><path d="M336.2 557.4c149.8 0 271.2-121 271.2-270.2A270.7 270.7 0 0 0 336.2 17 270.7 270.7 0 0 0 65 287.2a270.7 270.7 0 0 0 271.2 270.2Z" fill="url(#b)" fill-opacity=".4"/><path d="M336.2 557.4c149.8 0 271.2-121 271.2-270.2A270.7 270.7 0 0 0 336.2 17 270.7 270.7 0 0 0 65 287.2a270.7 270.7 0 0 0 271.2 270.2Z" fill="url(#c)" fill-opacity=".5"/><path d="M605.4 287.2a268.7 268.7 0 0 1-269.2 268.2A268.7 268.7 0 0 1 67 287.2 268.7 268.7 0 0 1 336.2 19c148.7 0 269.2 120 269.2 268.2Z" stroke="url(#d)" stroke-width="4"/></g><g filter="url(#e)"><path d="M465.5 383.3h-.1l-1.5 2c.5-.7 1.2-1.3 1.6-2Z" fill="#041836"/><path d="M507.7 259.4a102.1 102.1 0 0 0-102.8-98.8c-27.6 0-52.4 10.6-71 28a102.7 102.7 0 0 0-173.2 72v.7c0 42.3 15.6 79.8 29.8 105.5a282.6 282.6 0 0 0 20 31.3c2.7 3.7 5.1 6.7 6.9 8.8l2 2.5.7.8.2.2v.1h.1a33 33 0 0 0 46.5 3.2 32.8 32.8 0 0 0 3.1-46.2c0-.1 0-.2-.2-.3l-1.2-1.4-5-6.4c-4.1-5.8-9.8-14-15.3-24.3-11.5-20.7-21.6-46.9-21.7-73.4a37 37 0 0 1 74 .4c.2 5.1 1.5 9.9 3.7 14.2a32.8 32.8 0 0 0 30.7 21A32.6 32.6 0 0 0 368 265v-4.3c.7-19.6 17-35.2 37-35.2s36.4 15.7 37 35.2c0 21.3-7 42.3-14.8 58.9-3.9 8.1-7.7 14.8-10.5 19.3l-3.2 5c-.4.6-.6 1-.8 1.1 0 .1 0 .2-.2.2 0 .2-.3.5-.3.5 6-7.5 15.3-12.2 25.8-12.2a32.6 32.6 0 0 1 32.8 32.3c0 6.5-2 12.4-5.3 17.5h.2c.2-.1.2-.2.2-.3.2-.1.3-.4.5-.7l1.5-2.1 4.8-7.4c3.8-6.3 9-15.1 14-26 10.1-21.3 21-52.1 21-86.6v-.7Z" fill="#041836"/><path d="M437.8 333.4a33.2 33.2 0 0 0-25.7 12.2 31.6 31.6 0 0 0-7.2 20 32.6 32.6 0 0 0 32.9 32.4 33 33 0 0 0 27.6-14.8c3.3-5 5.2-11 5.2-17.5a32.6 32.6 0 0 0-32.8-32.3Z" fill="#B7E803"/></g><defs><linearGradient id="c" x1="336.2" y1="17" x2="336.2" y2="557.4" gradientUnits="userSpaceOnUse"><stop stop-color="#fff"/><stop offset="1" stop-color="#fff" stop-opacity="0"/></linearGradient><linearGradient id="d" x1="181.4" y1="64.8" x2="454.9" y2="534.7" gradientUnits="userSpaceOnUse"><stop stop-color="#fff"/><stop offset="1" stop-color="#fff" stop-opacity="0"/></linearGradient><filter id="a" x="25" y="-23" width="622.4" height="620.4" filterUnits="userSpaceOnUse" color-interpolation-filters="sRGB"><feFlood flood-opacity="0" result="BackgroundImageFix"/><feGaussianBlur in="BackgroundImage" stdDeviation="20"/><feComposite in2="SourceAlpha" operator="in" result="effect1_backgroundBlur"/><feBlend in="SourceGraphic" in2="effect1_backgroundBlur" result="shape"/></filter><filter id="e" x=".7" y=".6" width="667" height="581.2" filterUnits="userSpaceOnUse" color-interpolation-filters="sRGB"><feFlood flood-opacity="0" result="BackgroundImageFix"/><feColorMatrix in="SourceAlpha" values="0 0 0 0 0 0 0 0 0 0 0 0 0 0 0 0 0 0 127 0"/><feOffset/><feGaussianBlur stdDeviation="80"/><feColorMatrix values="0 0 0 0 1 0 0 0 0 1 0 0 0 0 1 0 0 0 1 0"/><feBlend in2="BackgroundImageFix" result="effect1_dropShadow"/><feBlend in="SourceGraphic" in2="effect1_dropShadow" result="shape"/></filter><radialGradient id="b" cx="0" cy="0" r="1" gradientUnits="userSpaceOnUse" gradientTransform="rotate(85.8 125 124.7) scale(576.776 618.653)"><stop offset="0" stop-color="#ECF5FC"/><stop offset="1" stop-color="#CEE4F3"/></radialGradient></defs></svg>