<svg xmlns="http://www.w3.org/2000/svg" fill="none" viewBox="0 0 16 16"><path fill="#000000" fill-rule="evenodd" d="M4.502 10.037v1.46L1 7.996l.734-.728 2.768 2.77Zm1.461 1.46h-1.46L8.004 15l.73-.73-2.772-2.772ZM14.27 8.73 15 8 8.002 1l-.73.73 2.765 2.77H8.365l-1.93-1.93-.73.73 1.201 1.202H6.07v5.431h5.43v-.84l1.203 1.203.73-.73-1.932-1.933V5.961l2.77 2.768ZM4.868 4.134l-.73.73.783.784.73-.73-.783-.784Zm6.215 6.215-.728.73.784.783.73-.73-.786-.783ZM3.3 5.701l-.73.73 1.931 1.933V6.902l-1.2-1.2Zm5.797 5.797H7.636l1.932 1.932.73-.731-1.2-1.201Z" clip-rule="evenodd"/></svg>