<svg viewBox="0 0 105 22" fill="none" xmlns="http://www.w3.org/2000/svg" height="1em"><path opacity=".7" d="M78.2 8v13h-4.3V10.2L78.2 8ZM21 21.3l10-5.2-1.3-3.2-6.6 3-2.1 5.4Z" fill="#f03e2f"/><path opacity=".5" d="m73.9 10.2 10.8-5.5L83 1.6 74 6v4.2Z" fill="#f03e2f"/><path opacity=".7" d="M43.4 7v14h-4.1V1l4 6Z" fill="#f03e2f"/><path opacity=".5" d="M27.1 6.2 21 21.3l-3.2-2.7L25 1l2 5.2Z" fill="#f03e2f"/><path d="M25.1 1h4.2l7.8 20h-4.3L25.1 1ZM44 1l9 13.7V21L39.3 1H44ZM65 1h-4.3v20h4.2V1ZM73.9 4.7h-6.5V1h15.2l2.1 3.7H74Z" fill="#f03e2f"/><path opacity=".5" d="M97.3 13.4V21H93v-7.6" fill="#f03e2f"/><path d="M93 13.4 100.3 1h4.5l-7.4 12.4H93Z" fill="#f03e2f"/><path opacity=".7" d="M93 13.4 85.8 1h4.6l5 8.5-2.2 4Z" fill="#f03e2f"/><path d="M2 3.3c0 2.8 1.7 4.5 5.2 5.3l3.7.9c3.3.7 5.4 2.6 5.4 5.6 0 1.3-.4 2.6-1.3 3.7 0-3-1.6-4.7-5.4-5.7L6 12.3C3 11.7.8 10.1.8 6.8c0-1.2.4-2.5 1.2-3.5" fill="#f03e2f"/><path opacity=".7" d="M53 13.6V1h4v20h-4v-7.4ZM12.7 14.4c1.6 1 2.3 2.4 2.3 4.4-1.3 1.6-3.6 2.5-6.3 2.5-4.6 0-7.7-2.2-8.4-6h4.3c.6 1.8 2 2.6 4 2.6 2.5 0 4.1-1.3 4.1-3.5M4.2 7.4a4.6 4.6 0 0 1-2.2-4A7.6 7.6 0 0 1 8 .6c4.6 0 7.3 2.4 8 5.8h-4.2C11.4 5 10.3 4 8 4 6 4.1 4.3 5.4 4.2 7.4" fill="#f03e2f"/></svg>