<svg viewBox="0 0 32 32" xmlns="http://www.w3.org/2000/svg"><path d="m18 29.6.3-.2 3.5-3.7a3.2 3.2 0 0 0 1-2.7 6 6 0 0 0-.1-.6l-1 .8-1.3 1.3a2 2 0 0 1-2.2.4 2 2 0 0 1-1.3-1.7 1 1 0 0 0 0-.2l-1 .9-7 5.9-.1.1H18v-.3zM8.3 29.6a1.2 1.2 0 0 1 .3-.3l9.7-8.2 2-1.6a.5.5 0 0 0 .1-.3 5.4 5.4 0 0 0 0-2l-.1.1-2.4 2.1a1.8 1.8 0 0 1-2 .4 1.9 1.9 0 0 1-1.1-1.8v-.4l-.4.3L3 27.2c-.2 0-.4.4-.6.1s0-.4.2-.6L15 17c.7-.6.7-.8.3-1.7l-.3.3-2.1 2A2.1 2.1 0 0 1 9.2 16l-.4.3-6 4.7a1.5 1.5 0 0 1-.4.3.4.4 0 0 1-.3 0v8.5h6.2a.4.4 0 0 1 0-.3z" fill="#ffcebf"/><path d="m25.2 2.4-.4 1.7a1.7 1.7 0 0 0 .9 2 7.1 7.1 0 0 0 3.8.9V2.5a.7.7 0 0 1 0-.3.7.7 0 0 1 0-.1h-4.3v.3z" fill="#ff6196"/><g fill="#ff87af"><path d="M16.5 12a2.4 2.4 0 0 1-.5 1.4 22.7 22.7 0 0 1-3.7 3.8 1.4 1.4 0 0 1-1.7.2 1.4 1.4 0 0 1-.9-1.4 1.6 1.6 0 0 1 .4-1 35.8 35.8 0 0 1 5-4 .7.7 0 0 1 .9 0 1 1 0 0 1 .5 1zM15.3 18a1.4 1.4 0 0 1 .4-1.1 38.3 38.3 0 0 1 4.9-3.8l.2-.1a.8.8 0 0 1 1 0 .9.9 0 0 1 .2 1 4.4 4.4 0 0 1-1.1 1.9l-3.4 3.2a1.1 1.1 0 0 1-1.4.2 1.5 1.5 0 0 1-.8-1.2zM22.5 18.8l-.8.8a1.9 1.9 0 0 0-.2.4c.1 0 .3.2.4.1l1.9-.7-.4 1a12.2 12.2 0 0 1-2.4 2.8q-.5.6-1.1 1a1.5 1.5 0 0 1-2.4-.9 1.1 1.1 0 0 1 .2-.8 22.2 22.2 0 0 1 4.6-3.8.2.2 0 0 1 .1 0z"/></g><path d="m24.8 14.8 1.7-7.6 1.2.3-.6 1.8-1.7 5.3c-.2.3-.3.4-.6.2zM22.9 19.2l.5-2a4.5 4.5 0 0 1 .8-1.7c.2-.3.5-.1.8 0 .3 0 .3.2.3.4a2.8 2.8 0 0 1-.6 2 4.8 4.8 0 0 1-1.8 1.3z" fill="#ff6196"/><path d="M30 2.9a3.6 3.6 0 0 0 0-.7.3.3 0 0 0-.1-.1.4.4 0 0 0-.2-.1h-.1a.7.7 0 0 0-.1.2.7.7 0 0 0 0 .3V7a7.1 7.1 0 0 1-3.9-.8 1.7 1.7 0 0 1-.9-2.1 46.6 46.6 0 0 1 .5-2 .2.2 0 0 0-.1 0 .3.3 0 0 0-.2 0 .4.4 0 0 0-.2.2L24.2 4a2.1 2.1 0 0 0 0 .7 2.3 2.3 0 0 0 1.5 2c.2.1.3.2.3.4l-.3 1-1.4 6.4a.5.5 0 0 1-.1.3 3.2 3.2 0 0 0-.8.9 4.8 4.8 0 0 0-.6 1.5 1 1 0 0 1-.5.8l-1.3.7a12.6 12.6 0 0 0 0-1.6 1 1 0 0 1 .3-1 4.8 4.8 0 0 0 1.2-2.2 1.3 1.3 0 0 0-1.2-1.7 1.7 1.7 0 0 0-.9.3l-2.8 2L16 16a.8.8 0 0 0-.1-.3c-.5-.7-.2-1.2.3-1.7a2.8 2.8 0 0 0 .8-2 1.6 1.6 0 0 0-.3-1 1.5 1.5 0 0 0-.5-.3 1.3 1.3 0 0 0-1.5.2l-.3.2-1.9 1.3-2.6 2.3-1 1.1-6.6 5a1 1 0 0 0-.2.3v.3a.4.4 0 0 0 .3 0 1.5 1.5 0 0 0 .3-.2l6.1-4.7.4-.3a2.1 2.1 0 0 0 3.6 1.4l2.1-2 .3-.3c.4.9.4 1.1-.3 1.7L2.5 26.7c-.1.2-.5.3-.2.6s.4 0 .6-.1l11.5-9.3.4-.3v.4a1.9 1.9 0 0 0 1 1.8 1.8 1.8 0 0 0 2.1-.4l2.4-2c0-.1 0-.2.2-.2a5.4 5.4 0 0 1 0 2 .5.5 0 0 1-.3.3l-2 1.7-9.6 8.1a1.2 1.2 0 0 0-.3.3.4.4 0 0 0 0 .3.4.4 0 0 0 .3 0 .3.3 0 0 0 .2 0l.1-.1 7-6 1-.8a1 1 0 0 1 0 .2 2 2 0 0 0 1.3 1.7 2 2 0 0 0 2.2-.4l1.4-1.3.9-.8a6 6 0 0 1 .1.6 3.2 3.2 0 0 1-1 2.7l-3.5 3.7-.3.2v.3a.6.6 0 0 0 .4 0h.1l2.9-3a14 14 0 0 0 1-1.2 3.4 3.4 0 0 0 .7-3.7.5.5 0 0 1 0-.3l.3-.4a4.6 4.6 0 0 0 .6-1 7.5 7.5 0 0 1 1.3-2.4 2.8 2.8 0 0 0 .5-2.4 1 1 0 0 1 0-.5l1.5-4.7.7-2.1.2-.7h1.3c.4 0 .5-.1.5-.5V3zM12.3 17.2a1.4 1.4 0 0 1-1.7.2 1.4 1.4 0 0 1-.9-1.4 1.6 1.6 0 0 1 .4-1 35.8 35.8 0 0 1 5-4 .9.9 0 0 1 .4 0 .7.7 0 0 1 .2 0 .8.8 0 0 1 .3 0 1 1 0 0 1 .5 1 2.4 2.4 0 0 1-.5 1.4 22.7 22.7 0 0 1-3.7 3.8zm5.2 2a1.1 1.1 0 0 1-1.4.1 1.5 1.5 0 0 1-.8-1.2 1.4 1.4 0 0 1 .4-1.2 38.3 38.3 0 0 1 4.9-3.8l.2-.1a.8.8 0 0 1 1 0 .9.9 0 0 1 .2 1 4.4 4.4 0 0 1-1.1 2L17.5 19zm5.9 1.2a12.2 12.2 0 0 1-2.4 2.8q-.5.6-1.1 1a1.5 1.5 0 0 1-2.4-.9 1.1 1.1 0 0 1 .2-.8 22.2 22.2 0 0 1 4.6-3.8.2.2 0 0 1 .1 0h.1l-.8 1a1.9 1.9 0 0 0-.2.3c.1 0 .3.2.4.1l1.5-.5.4-.2-.4 1zm1.3-2.6a4.4 4.4 0 0 1-1.3 1.2l-.5.2.5-2a4.5 4.5 0 0 1 .8-1.7c.2-.3.5-.1.8 0 .3 0 .3.2.3.4a2.8 2.8 0 0 1-.6 2zm2.4-8.5-1.7 5.3c-.2.3-.3.4-.6.2l1.5-6.6.2-1 1.2.3-.2.7z"/></svg>