<svg xmlns="http://www.w3.org/2000/svg" fill="none" viewBox="0 0 54 33"><g clip-path="url(#a)"><path fill="#38bdf8" fill-rule="evenodd" d="M27 0c-7.2 0-11.7 3.6-13.5 10.8 2.7-3.6 5.8-5 9.4-4 2.1.5 3.6 2 5.2 3.6 2.6 2.7 5.7 5.8 12.4 5.8 7.2 0 11.7-3.6 13.5-10.8-2.7 3.6-5.8 5-9.4 4-2.1-.5-3.6-2-5.2-3.6C36.8 3.1 33.7 0 27 0zM13.5 16.2C6.3 16.2 1.8 19.8 0 27c2.7-3.6 5.8-5 9.4-4 2.1.5 3.6 2 5.2 3.6 2.6 2.7 5.7 5.8 12.4 5.8 7.2 0 11.7-3.6 13.5-10.8-2.7 3.6-5.8 5-9.4 4-2.1-.5-3.6-2-5.2-3.6-2.6-2.7-5.7-5.8-12.4-5.8z" clip-rule="evenodd"/></g><defs><clipPath id="a"><path fill="#fff" d="M0 0h54v32.4H0z"/></clipPath></defs></svg>