<svg xmlns="http://www.w3.org/2000/svg" viewBox="0 0 128 128"><path fill="#007acc" d="M2 64v62.4h125V1.4H2Zm100.7-5a15.6 15.6 0 0 1 7.9 4.4 20.6 20.6 0 0 1 3 4c0 .2-5.4 3.8-8.7 5.9-.2 0-.6-.5-1.2-1.3a7 7 0 0 0-5.8-3.5c-3.8-.3-6.3 1.7-6.2 5a4.6 4.6 0 0 0 .5 2.3c.8 1.8 2.4 2.8 7.2 4.9 9 3.8 12.8 6.4 15.2 10 2.7 4 3.2 10.5 1.4 15.2-2 5.2-6.9 8.8-13.8 10a38.3 38.3 0 0 1-9.5-.2 23 23 0 0 1-12.7-6.5 22 22 0 0 1-3.3-4.8 9.3 9.3 0 0 1 1.2-.8l4.6-2.6 3.6-2 .7 1a16.8 16.8 0 0 0 4.8 4.6c4 2 9.4 1.8 12.1-.6a5.4 5.4 0 0 0 .7-7c-1-1.4-3-2.5-8.6-5a31 31 0 0 1-11.7-7.2 16.5 16.5 0 0 1-3.5-6.3 25 25 0 0 1-.2-8c1.3-6.2 6-10.5 12.8-11.8a31.7 31.7 0 0 1 9.5.2Zm-29.3 5.2v5H57.2v46.3H45.6V69.3H29.4v-5a49.2 49.2 0 0 1 .1-5.2l22-.1h21.8Z"/></svg>