<svg width="805" height="21" xmlns="http://www.w3.org/2000/svg" xmlns:xlink="http://www.w3.org/1999/xlink"><defs><linearGradient x1="0%" y1="0%" x2="108%" y2="99.2%" id="a"><stop stop-color="#F6F4F9" offset="0%"/><stop stop-color="#CECBE4" offset="100%"/></linearGradient><linearGradient x1="0%" y1="50%" x2="100%" y2="50%" id="c"><stop stop-color="#C8BFD5" offset="0%"/><stop stop-color="#F1F1F9" stop-opacity=".5" offset="1%"/><stop stop-color="#E4E4F1" stop-opacity=".5" offset="2%"/><stop stop-color="#DDDCED" stop-opacity=".5" offset="2.9%"/><stop stop-color="#F4F2F8" offset="18%"/><stop stop-color="#CCCADD" stop-opacity=".6" offset="94.6%"/><stop stop-color="#E5E4F1" stop-opacity=".6" offset="96.2%"/><stop stop-color="#FFFEFF" stop-opacity=".5" offset="97.7%"/><stop stop-color="#F6F5FA" stop-opacity=".5" offset="99%"/><stop stop-color="#A7A5CD" stop-opacity=".5" offset="100%"/></linearGradient><linearGradient x1="0%" y1="0%" x2="105.6%" y2="97.1%" id="d"><stop stop-color="#DDD8E6" offset="0%"/><stop stop-color="#9992AF" offset="100%"/></linearGradient><linearGradient x1="0%" y1="0%" x2="105.6%" y2="97.1%" id="f"><stop stop-color="#EAEAEB" offset="0%"/><stop stop-color="#9992AF" offset="100%"/></linearGradient><linearGradient x1="0%" y1="50%" x2="106.6%" y2="50%" id="h"><stop stop-color="#F6F4F9" offset="0%"/><stop stop-color="#CECBE4" offset="100%"/></linearGradient><linearGradient x1="0%" y1="100%" x2="100%" y2="100%" id="j"><stop stop-color="#FFF" offset="0%"/><stop stop-color="#7D6D9A" stop-opacity=".3" offset="7.3%"/><stop stop-color="#FFF" stop-opacity="0" offset="15.8%"/><stop stop-color="#E3E0F4" offset="81%"/><stop stop-color="#EBE9F7" offset="93.8%"/><stop stop-color="#FFF" offset="100%"/></linearGradient><path id="b" d="M0 12.5h804.7V1.8H0z"/><path d="M0 12.5C0 17.2 16 21 38.5 21h727.7c22.5 0 38.5-3.8 38.5-8.5H0Z" id="e"/><path d="M56.3.5C42.8.5 0 .9 0 1.8h804.7c0-.9-42.9-1.3-56.4-1.3h-692Z" id="g"/><path d="M448.3 9.9h-92a8 8 0 0 1-8-8h108a8 8 0 0 1-8 8" id="i"/></defs><g fill="none" fill-rule="evenodd"><g transform="translate(0 -.5)"><use fill="url(#a)" xlink:href="#b"/><use fill="url(#c)" xlink:href="#b"/><use fill-opacity=".3" fill="#D1F9FF" style="mix-blend-mode:color" xlink:href="#b"/></g><g transform="translate(0 -.5)"><use fill="url(#d)" xlink:href="#e"/><use fill-opacity=".3" fill="#D1F9FF" style="mix-blend-mode:color" xlink:href="#e"/></g><g transform="translate(0 -.5)"><use fill="url(#f)" xlink:href="#g"/><use fill-opacity=".3" fill="#D1F9FF" style="mix-blend-mode:color" xlink:href="#g"/></g><g transform="translate(0 -.5)"><use fill="url(#h)" xlink:href="#i"/><use fill="url(#j)" xlink:href="#i"/><use fill-opacity=".3" fill="#D1F9FF" style="mix-blend-mode:color" xlink:href="#i"/></g></g></svg>