<svg width="694" height="466" xmlns="http://www.w3.org/2000/svg" xmlns:xlink="http://www.w3.org/1999/xlink"><defs><linearGradient x1="0%" y1="0%" x2="108%" y2="99.2%" id="a"><stop stop-color="#F6F4F9" offset="0%"/><stop stop-color="#CECBE4" offset="100%"/></linearGradient><linearGradient x1=".6%" y1="0%" x2="50%" y2="100%" id="c"><stop stop-color="#DEEBF6" offset="0%"/><stop stop-color="#7EABBC" offset="100%"/></linearGradient><linearGradient x1="0%" y1="0%" x2="107.6%" y2="98.9%" id="d"><stop stop-color="#DDEAF5" offset="0%"/><stop stop-color="#C2CDD6" offset="100%"/></linearGradient><path d="M72.3.5a16 16 0 0 0-16 16v447c0 6 5 11 11 11h670c6.1 0 11-5 11-11v-447a16 16 0 0 0-16-16h-660Z" id="b"/></defs><g transform="translate(-55 .5)" fill="none" fill-rule="evenodd"><use fill="url(#a)" xlink:href="#b"/><use fill-opacity=".3" fill="#D1F9FF" style="mix-blend-mode:color" xlink:href="#b"/><path stroke="url(#c)" stroke-width="3" d="M72.3 2c-8 0-14.5 6.5-14.5 14.5v447c0 5.2 4.3 9.5 9.5 9.5h670c5.3 0 9.5-4.3 9.5-9.5v-447c0-8-6.5-14.5-14.5-14.5h-660Z"/><path stroke="url(#d)" stroke-width="2.5" d="M72.3 1.8c-8.1 0-14.7 6.6-14.7 14.7v447c0 5.4 4.3 9.8 9.7 9.8h670c5.4 0 9.8-4.4 9.8-9.8v-447c0-8.1-6.6-14.8-14.8-14.8h-660Z"/><use stroke-opacity=".3" stroke="#D1F9FF" xlink:href="#b"/></g></svg>