<svg width="256" height="256" xmlns="http://www.w3.org/2000/svg"><defs><linearGradient x1="62.1%" y1="0%" x2="108.2%" y2="37.9%" id="a"><stop stop-color="#4285EB" offset="0%"/><stop stop-color="#2EC7FF" offset="100%"/></linearGradient><linearGradient x1="69.6%" y1="0%" x2="54%" y2="108.5%" id="b"><stop stop-color="#29CDFF" offset="0%"/><stop stop-color="#148EFF" offset="37.9%"/><stop stop-color="#0A60FF" offset="100%"/></linearGradient><linearGradient x1="69.7%" y1="-13%" x2="16.7%" y2="117.4%" id="c"><stop stop-color="#FA816E" offset="0%"/><stop stop-color="#F74A5C" offset="41.5%"/><stop stop-color="#F51D2C" offset="100%"/></linearGradient><linearGradient x1="68.1%" y1="-35.7%" x2="30.4%" y2="114.9%" id="d"><stop stop-color="#FA8E7D" offset="0%"/><stop stop-color="#F74A5C" offset="51.3%"/><stop stop-color="#F51D2C" offset="100%"/></linearGradient></defs><g fill-rule="nonzero" fill="none"><path d="M116.9 4.5 4.5 116.8c-6 6-6 15.8 0 21.8L117 250.8c6 6 15.7 6 21.8 0l47-47a13.8 13.8 0 1 0-19.5-19.6l-35.7 35.7a3.7 3.7 0 0 1-5.3 0l-89.7-89.7a3.7 3.7 0 0 1 0-5.2l89.7-89.7a3.7 3.7 0 0 1 5.3 0L166.2 71a13.9 13.9 0 0 0 19.6-19.6l-47.1-47c-6-6-15.8-5.9-21.8.1Z" fill="url(#a)"/><path d="M116.9 4.5 4.5 116.8c-6 6-6 15.8 0 21.8L117 250.8c6 6 15.7 6 21.8 0l47-47a13.8 13.8 0 1 0-19.5-19.6l-35.7 35.7a3.7 3.7 0 0 1-5.3 0l-89.7-89.7a3.7 3.7 0 0 1 0-5.2l89.7-89.7c3.7-3.2 9.9-9.7 18.8-11.3 6.7-1 14 1.4 21.9 7.5L138.7 4.4c-6-6-15.8-5.9-21.8.1Z" fill="url(#b)"/><path d="M196.6 173.8a13.9 13.9 0 0 0 19.6 0L251 139c6-6 6-15.7 0-21.8l-35-34.9a13.9 13.9 0 0 0-19.7 19.6l23.7 23.7a3.7 3.7 0 0 1 0 5.3l-23.4 23.3a13.8 13.8 0 0 0 0 19.6Z" fill="url(#c)"/><circle fill="url(#d)" cx="128.3" cy="128.2" r="30.3"/></g></svg>