<svg xmlns="http://www.w3.org/2000/svg" xmlns:xlink="http://www.w3.org/1999/xlink" aria-hidden="true" role="img" width="1em" height="1em" preserveAspectRatio="xMidYMid meet" viewBox="0 0 32 32"><path d="M22.906 12.693c-1.682-7.417-5.656-9.849-6.083-10.781c-.469-.661-.974-1.911-.974-1.911c-.005.026-.005.042-.01.068v.016c0 .021-.005.031-.005.052v.021h-.005v.067h-.005c0 .01 0 .026-.005.031v.031c0 .01 0 .021-.005.026v.026c0 .016 0 .031-.005.042v.005a.32.32 0 0 1-.01.068v.01c-.005.005-.005.01-.005.016v.021h-.005v.031h-.005v.021h-.01v.031h-.005V.61h-.005v.021h-.005v.021h-.005v.021h-.005v.021h-.005V.71h-.005v.021h-.005v.021h-.005c-.005 0-.005.005-.005.005v.01l-.005.01c0 .01-.005.021-.01.031c-.005.005-.005.005-.005.01v.01h-.005v.01h-.01v.026h-.01V.88h-.005v.005h-.005v.01h-.005v.016h-.005v.01h-.01v.016h-.005v.01h-.005v.01h-.005v.016h-.005v.01h-.005v.005h-.005v.01h-.01v.016h-.005v.005h-.005v.01h-.005v.016h-.005v.005h-.005v.01h-.005v.005h-.005v.016h-.01v.005h-.005v.01h-.005v.005h-.005v.01h-.005v.01c-.005 0-.005.005-.005.005v.005h-.005l-.016.026s-.01.01-.01.016c-.005 0-.005.005-.005.005v.005h-.005v.005h-.005v.01h-.01v.005h-.005v.005h-.005v.015h-.005v.005h-.005v.005h-.005v.01h-.005v-.01h-.01v.005h-.005v.01h-.005v.01h-.005v.005h-.005v.005h-.005v.005h-.005v.01h-.01v.005h-.005v.01h-.005v.005h-.005v.005h-.005v.016h-.005v.005h-.005v.005h-.005v.005h-.005v.005h-.01v.01h-.005v.005h-.005v.005h-.005v.01h-.005v.005h-.01v.005h-.005v.005h-.005v.01h-.005v.01h-.005v.005h-.005v.005h-.01v.005h-.005v.005h-.005v.01h-.005v.005h-.005v.01h-.005v.005h-.005v.005h-.005v.005h-.005v.005h-.01v.005c-.005 0-.005.005-.005.005l-.005.005l-.005.005v.01h-.005v.005h-.005v.005h-.005v.005h-.005l-.01.01v.005c-.01.005-.01.01-.021.021c0 0-.01.01-.016.01c-.016.01-.036.031-.052.047c-.01.005-.021.016-.031.021c-.021.021-.042.036-.063.052c-.031.031-.063.052-.099.083h-.005l-.245.214h-.005c-.224.198-.49.453-.792.755l-.026.026c-1.813 1.875-4.672 5.786-4.969 12.104c-.031.521-.026 1.031.005 1.526v.01c.146 2.49.927 4.615 1.906 6.344c.385.688.807 1.313 1.234 1.875c1.469 1.938 2.969 3.089 3.349 3.37c.589 1.359.536 3.703.536 3.703l.859.286s-.177-2.266.068-3.365c.078-.339.255-.63.464-.88c.146-.099.563-.401 1.063-.859c.026-.026.042-.047.063-.073c2.026-1.891 5.813-6.547 4.516-14.13z" fill="#439934"/></svg>